<svg width="28" height="26" viewBox="0 0 28 26" fill="none" xmlns="http://www.w3.org/2000/svg">
<path fill-rule="evenodd" clip-rule="evenodd" d="M10.6667 13.737C14.3395 13.737 17.2835 10.7548 17.2835 7.03448C17.2835 3.3142 14.3395 0.332031 10.6667 0.332031C6.99399 0.332031 4.04991 3.3142 4.04991 7.03448C4.04991 10.7548 6.99399 13.737 10.6667 13.737ZM10.6667 17.019C5.27237 17.019 0.666748 17.8815 0.666748 21.3272C0.666748 24.7718 5.24435 25.6654 10.6667 25.6654C16.0598 25.6654 20.6667 24.8028 20.6667 21.357C20.6667 17.9112 16.0891 17.019 10.6667 17.019ZM24.5306 9.78251H26.1347C26.795 9.78251 27.3334 10.3284 27.3334 10.998C27.3334 11.6675 26.795 12.2135 26.1347 12.2135H24.5306V13.7832C24.5306 14.4528 23.9937 14.9987 23.3321 14.9987C22.6718 14.9987 22.1334 14.4528 22.1334 13.7832V12.2135H20.5321C19.8703 12.2135 19.3334 11.6675 19.3334 10.998C19.3334 10.3284 19.8703 9.78251 20.5321 9.78251H22.1334V8.21419C22.1334 7.54463 22.6718 6.9987 23.3321 6.9987C23.9937 6.9987 24.5306 7.54463 24.5306 8.21419V9.78251Z" fill="white"/>
</svg>
