<svg width="1440" height="1256" viewBox="0 0 1440 1256" fill="none" xmlns="http://www.w3.org/2000/svg">
<path d="M-618.598 1157.95C-622.543 1134.68 -609.122 792.905 -484.782 509.925C-373.168 256.267 -113.617 111.698 190.161 294.011C515.647 489.405 796.401 509.053 1022.78 452.056C1246.2 395.546 1394.77 225.275 1461.5 116.7C1606.32 -117.932 1820.25 27.1997 1745.1 335.908C1709.65 479.511 1616.18 519.66 1454.21 534.561C1284.91 550.136 1034.78 517.075 687.835 584.45C353.245 649.682 -23.2807 806.346 -235.006 1005.76C-460.333 1218.16 -585.564 1361 -618.598 1157.95Z" fill="url(#paint0_linear_1156_1029)"/>
<defs>
<linearGradient id="paint0_linear_1156_1029" x1="1637" y1="973.321" x2="-567.332" y2="290.041" gradientUnits="userSpaceOnUse">
<stop stop-color="#5D50C6"/>
<stop offset="1" stop-color="#F85E9F"/>
</linearGradient>
</defs>
</svg>
