<svg width="28" height="28" viewBox="0 0 28 28" fill="none" xmlns="http://www.w3.org/2000/svg">
<path d="M26.5806 1.44394C25.9137 0.759436 24.9266 0.504423 24.0062 0.772849L2.54408 7.014C1.57302 7.28378 0.884735 8.05822 0.699322 9.04204C0.509909 10.0433 1.17152 11.3144 2.03587 11.8458L8.74662 15.9704C9.4349 16.3932 10.3233 16.2872 10.8928 15.7126L18.5773 7.98037C18.9641 7.57772 19.6043 7.57772 19.9913 7.98037C20.3781 8.36961 20.3781 9.00044 19.9913 9.40309L12.2934 17.1368C11.7225 17.7098 11.6158 18.6024 12.0359 19.2949L16.1363 26.073C16.6165 26.8782 17.4435 27.3346 18.3505 27.3346C18.4573 27.3346 18.5773 27.3346 18.6841 27.3212C19.7245 27.187 20.5514 26.4757 20.8582 25.469L27.2209 4.03436C27.501 3.12168 27.2475 2.12846 26.5806 1.44394Z" fill="white"/>
</svg>
